<svg width="38" height="32" viewBox="0 0 38 32" fill="none" xmlns="http://www.w3.org/2000/svg">
<path d="M0.178143 4C0.178143 1.88925 1.88925 0.178143 4 0.178143H23.7928C25.0073 0.178143 26.1496 0.755449 26.8699 1.73336L35.7091 13.7334C36.7021 15.0813 36.7021 16.9187 35.7091 18.2666L26.8699 30.2666C26.1496 31.2446 25.0073 31.8219 23.7928 31.8219H4C1.88925 31.8219 0.178143 30.1108 0.178143 28V4Z" fill="#141414" stroke="#141414" stroke-width="0.356286"/>
<path fill-rule="evenodd" clip-rule="evenodd" d="M19.7602 24.9003C19.8325 24.9959 19.9047 25.0915 19.9765 25.1871L19.9757 25.1875C19.9784 25.1908 19.9812 25.1944 19.9827 25.1983C19.9901 25.2151 19.9815 25.2279 19.9606 25.2315C19.9445 25.2342 19.9282 25.2338 19.912 25.2334C19.9063 25.2333 19.9006 25.2331 19.895 25.2331C19.8844 25.2331 19.8737 25.2331 19.8631 25.233C19.8419 25.2328 19.8207 25.2327 19.7995 25.2331C19.7672 25.2335 19.7439 25.2236 19.7269 25.2C19.6901 25.1484 19.6524 25.097 19.6147 25.0457C19.6065 25.0346 19.5983 25.0235 19.5902 25.0124C19.5708 24.9858 19.5514 24.9591 19.5327 24.9325C19.5265 24.9237 19.5188 24.9207 19.5059 24.9207C19.4551 24.9217 19.4046 24.922 19.3537 24.9217C19.3409 24.9217 19.3378 24.9246 19.3378 24.9348C19.3382 25.0166 19.3382 25.0988 19.3382 25.1806C19.3382 25.2239 19.3273 25.2328 19.2753 25.2328H19.1573C19.1355 25.2328 19.1208 25.2233 19.1181 25.2055C19.1148 25.1862 19.1155 25.1667 19.1163 25.1473C19.1166 25.139 19.1169 25.1307 19.1169 25.1224V24.441C19.1169 24.4325 19.1173 24.4236 19.1189 24.4151C19.1216 24.4009 19.1344 24.3921 19.1511 24.3921H19.4733C19.4871 24.3921 19.5009 24.3921 19.5147 24.3921C19.5607 24.392 19.6066 24.3919 19.6523 24.3957C19.7513 24.4042 19.8367 24.4358 19.8965 24.5034C19.9435 24.5563 19.9582 24.6178 19.9489 24.6835C19.9369 24.7686 19.8864 24.832 19.7971 24.874C19.7903 24.8773 19.7827 24.8797 19.7752 24.8821C19.772 24.8831 19.7688 24.8841 19.7657 24.8852C19.7571 24.8885 19.754 24.8921 19.7602 24.9003ZM19.5809 24.7709C19.624 24.7692 19.6605 24.7571 19.6907 24.7305L19.6911 24.7301C19.7416 24.6855 19.7288 24.6079 19.6667 24.5757C19.6325 24.558 19.5952 24.556 19.5576 24.5557C19.511 24.5552 19.4645 24.5554 19.4182 24.5555C19.395 24.5556 19.3718 24.5557 19.3487 24.5557C19.3394 24.5557 19.3386 24.5596 19.3386 24.5659V24.7597C19.3386 24.7673 19.3405 24.7712 19.351 24.7712C19.3783 24.7711 19.4057 24.7714 19.4331 24.7717C19.4823 24.7722 19.5317 24.7728 19.5809 24.7709Z" fill="#FF6D38"/>
<path fill-rule="evenodd" clip-rule="evenodd" d="M18.4199 24.8129C18.4199 24.2087 18.9262 23.7188 19.5505 23.7188C20.1748 23.7188 20.6811 24.2087 20.6811 24.8129C20.6811 25.417 20.1748 25.907 19.5505 25.907C18.9262 25.907 18.4199 25.417 18.4199 24.8129ZM18.646 24.8129C18.646 25.2956 19.0516 25.6882 19.5505 25.6882C20.0493 25.6882 20.4549 25.2956 20.4549 24.8129C20.4549 24.3301 20.0493 23.9376 19.5505 23.9376C19.0516 23.9376 18.646 24.3301 18.646 24.8129Z" fill="#FF6D38"/>
<path d="M23.4957 9.65358L19.8163 5.86781C19.6584 5.70544 19.4079 5.66273 19.2018 5.76354L14.4012 8.10779C14.145 8.23292 14.0425 8.53433 14.1724 8.78112L15.0183 10.3905C15.1482 10.6373 15.4608 10.7361 15.7171 10.6109L17.0324 9.96889L15.7906 16.4321C15.7735 16.5205 15.6534 16.5443 15.6016 16.4693L11.7778 10.9417C11.402 10.3984 10.7223 10.1288 10.0587 10.2604C9.39509 10.3915 8.88055 10.8975 8.75735 11.5395L6.25195 24.5777C6.19967 24.8498 6.38602 25.1115 6.66866 25.1616L8.91834 25.5633C9.20097 25.6135 9.47221 25.4337 9.5245 25.1616L11.2369 16.2514C11.2539 16.163 11.374 16.1391 11.4258 16.2141L15.2496 21.7418C15.6254 22.285 16.3051 22.5547 16.9687 22.4231C17.6324 22.292 18.1469 21.786 18.2701 21.144L20.3174 10.4883L21.3708 11.5723C21.567 11.7744 21.8962 11.7848 22.1058 11.5956L23.4719 10.3622C23.6815 10.173 23.6924 9.85568 23.4957 9.65358Z" fill="#FF6D38"/>
</svg>
